<svg xmlns="http://www.w3.org/2000/svg" width="500" height="500" viewBox="0 0 132.292 132.292"><g transform="translate(0 -164.708)"><path d="M128.7 230.854c0 62.555-28.006 62.555-62.554 62.555-49.919 0-62.555-19.428-62.555-62.555 0-62.555 28.007-62.555 62.555-62.555s62.555 16.568 62.555 62.555z" fill="#11b1a5"/><path d="M81.716 288.775c-57.92 15.52-64.869-10.412-73.44-42.401-12.385-46.22 2.469-62.74 42.4-73.44 57.921-15.52 64.87 10.412 73.441 42.4 8.571 31.989.18 62.032-42.4 73.44z" fill="#020202"/><path d="M74.022 216.304a19.968 19.968 0 0 0-19.968 19.968 19.968 19.968 0 0 0 19.968 19.968 19.968 19.968 0 0 0 19.968-19.968 19.968 19.968 0 0 0-19.968-19.968zm0 1.283a18.685 18.685 0 0 1 18.685 18.685 18.685 18.685 0 0 1-18.685 18.685 18.685 18.685 0 0 1-18.685-18.685 18.685 18.685 0 0 1 18.685-18.685z" fill="#fff"/><circle cx="79.145" cy="230.492" r="8.15" fill="#fff"/><rect width="37.409" height="4.157" x="13.552" y="216.955" ry="2.078" transform="rotate(-10.586)" fill="#fff"/><path d="M37.041 200.994v69.925h42.334a4.526 4.526 0 0 0 4.536-4.535 4.526 4.526 0 0 0-4.536-4.536H42.71v-60.854z" fill="#fff"/></g></svg>